<svg fill="none" height="300" viewBox="0 0 769 300" width="769" xmlns="http://www.w3.org/2000/svg" xmlns:xlink="http://www.w3.org/1999/xlink"><linearGradient id="a"><stop offset="0" stop-color="#0cb4ca"/><stop offset="1" stop-color="#fff"/></linearGradient><linearGradient id="c" gradientUnits="userSpaceOnUse" x1="637.85" x2="735.462" xlink:href="#a" y1="125.802" y2="125.802"/><linearGradient id="d" gradientUnits="userSpaceOnUse" x1="617.919" x2="676.541" xlink:href="#a" y1="189.702" y2="189.702"/><linearGradient id="b"><stop offset="0" stop-color="#0ccaab"/><stop offset="1" stop-color="#fff"/></linearGradient><linearGradient id="e" gradientUnits="userSpaceOnUse" x1="695.306" x2="753.927" xlink:href="#b" y1="189.702" y2="189.702"/><linearGradient id="f" gradientUnits="userSpaceOnUse" x1="89.698" x2="89.698" xlink:href="#a" y1="150.131" y2="189.118"/><linearGradient id="g" gradientUnits="userSpaceOnUse" x1="231.09" x2="-306.034" xlink:href="#b" y1="176.207" y2="820.165"/><linearGradient id="h" gradientUnits="userSpaceOnUse" x1="134.256" x2="238.438" xlink:href="#b" y1="41.377" y2="41.377"/><linearGradient id="j" gradientUnits="userSpaceOnUse" x1="225.709" x2="225.123" xlink:href="#a" y1="85.056" y2="99.42"/><linearGradient id="l" gradientUnits="userSpaceOnUse" x1="398.95" x2="378.054" y1="49.295" y2="90.768"><stop offset="0" stop-color="#22d6b8"/><stop offset=".169" stop-color="#25d7b9"/><stop offset=".307" stop-color="#2fd8bc"/><stop offset=".434" stop-color="#40dcc2"/><stop offset=".555" stop-color="#59e0c9"/><stop offset=".671" stop-color="#78e6d4"/><stop offset=".784" stop-color="#9eede0"/><stop offset=".892" stop-color="#caf5ee"/><stop offset=".997" stop-color="#fdfffe"/><stop offset="1" stop-color="#fff"/></linearGradient><clipPath id="k"><path d="M362.309 50.76h45.728v32.01H362.31z"/></clipPath><mask id="i" fill="#fff"><path clip-rule="evenodd" d="M385.95 123.934c1.02 0 1.977.414 2.584 1.139.482.575.725 1.362.725 2.171v.015l38.651 8.998c.033-.054.068-.106.104-.157.601-.839 1.611-1.355 2.721-1.355 1.019 0 1.977.413 2.584 1.138.481.575.725 1.362.725 2.171 0 .693-.178 1.435-.527 2.011l16.332 21.42 36.981 5.387c.084-.195.187-.379.309-.548.6-.839 1.61-1.355 2.72-1.355 1.019 0 1.977.414 2.584 1.138.482.575.725 1.363.725 2.171 0 .42-.065.858-.194 1.266l31.146 23.964a3.403 3.403 0 012.14-.742c1.02 0 1.977.414 2.584 1.139.482.574.725 1.362.725 2.17 0 .217-.017.438-.051.657l8.655 3.797v1.445l-9.076-3.981a2.613 2.613 0 01-.402.55c-.601.62-1.502.841-2.435.841-.864 0-1.643-.299-2.232-.841a3.38 3.38 0 01-1.077-2.468c0-.544.115-1.074.34-1.535l-30.967-23.826-.03.032c-.601.62-1.502.841-2.435.841-.864 0-1.643-.299-2.232-.841a3.378 3.378 0 01-1.076-2.577l-37.427-5.452-16.574-21.738c-.529.276-1.165.384-1.815.384-.864 0-1.643-.299-2.233-.842a3.377 3.377 0 01-1.076-2.467c0-.183.013-.364.038-.542l-38.418-8.943c-.146.439-.367.84-.661 1.142-.601.621-1.502.842-2.435.842a3.4 3.4 0 01-1.364-.277l-18.544 22.022c.182.436.274.924.274 1.419 0 .895-.297 1.872-.875 2.468-.601.621-1.502.841-2.435.841-.863 0-1.643-.299-2.232-.841a3.38 3.38 0 01-1.077-2.468c0-.225.02-.448.059-.665l-27.797-9.946a2.741 2.741 0 01-.492.725c-.602.62-1.503.841-2.435.841a3.341 3.341 0 01-1.636-.411l-14.9 18.963c.286.511.431 1.122.431 1.745 0 .895-.297 1.872-.874 2.467-.602.621-1.503.842-2.435.842-.864 0-1.643-.3-2.232-.842a2.22 2.22 0 01-.099-.095l-29.88 12.728.001.122c0 .895-.296 1.872-.874 2.468-.601.62-1.502.841-2.435.841-.864 0-1.643-.299-2.232-.841a3.378 3.378 0 01-1.074-2.325l-32.488-12.964c-.108.188-.235.36-.378.508-.602.62-1.503.841-2.435.841-.451 0-.88-.082-1.27-.237l-9.099 12.894v-2.296l8-11.336a3.385 3.385 0 01-.94-2.334c0-.718.2-1.412.588-1.954.601-.839 1.611-1.355 2.721-1.355 1.019 0 1.977.414 2.584 1.138.481.575.725 1.363.725 2.171 0 .233-.02.472-.06.708l32.25 12.87c.096-.271.225-.524.388-.751.6-.839 1.61-1.355 2.72-1.355 1.02 0 1.977.414 2.584 1.138.182.217.329.463.443.73l29.424-12.534a3.364 3.364 0 01-.241-1.247c0-.718.2-1.412.588-1.954.601-.839 1.611-1.356 2.721-1.356.72 0 1.409.207 1.966.583l14.815-18.855a3.39 3.39 0 01-.676-2.024c0-.718.2-1.412.588-1.954.601-.839 1.611-1.355 2.721-1.355 1.019 0 1.977.414 2.584 1.139.481.574.725 1.362.725 2.17 0 .153-.009.309-.026.464l27.931 9.994.04-.058c.6-.838 1.61-1.355 2.72-1.355.841 0 1.64.282 2.235.787l18.268-21.695a3.384 3.384 0 01-.868-2.256c0-.718.201-1.412.589-1.954.6-.839 1.61-1.356 2.72-1.356z" fill-rule="evenodd"/></mask><path d="M487.182 32.586h256.782v257.368H487.182z" fill="#fff"/><path d="M516.778 98.472V225.63M534.945 98.472V225.63M553.11 98.472V225.63M571.274 98.472V225.63" stroke="#0b0a09" stroke-width=".586"/><path d="M591.242 97.075h128.554v92.922H591.242z" fill="url(#c)" transform="rotate(90 591.242 97.075)"/><path d="M529.062 114.541v19.563h-29.344V114.54z" fill="#bdbdbd"/><path d="M549.324 139.693v19.563h-49.605v-19.563z" fill="#828282"/><path d="M539.543 164.845v19.563h-39.824v-19.563z" fill="#e0e0e0"/><path d="M561.199 189.997v19.563h-61.482v-19.563z" fill="#0b0a09"/><path d="M602.676 105.282h165.911v165.325H602.676z" fill="#fff"/><path d="M603.262 105.869h154.525l10.214 10.497v153.655H603.262z" stroke="#0b0a09" stroke-width="1.173"/><rect fill="#0b0a09" height="7.621" rx="3.811" stroke="#0b0a09" stroke-width="1.173" width="12.898" x="671.27" y="243.053"/><rect fill="#bdbdbd" height="8.794" rx="4.397" width="14.07" x="687.098" y="242.467"/><path d="M676.344 193.124a29.316 29.316 0 00-22.915-32.07 29.313 29.313 0 00-34.121 19.731l27.923 8.919z" fill="#0b0a09"/><path d="M619.681 179.691a29.314 29.314 0 0030.881 39.136l-3.331-29.123z" fill="url(#d)"/><circle cx="647.233" cy="189.704" fill="#fff" r="21.319"/><path d="M713.911 216.992a29.316 29.316 0 0039.559-22.111 29.313 29.313 0 00-1.986-16.902l-26.866 11.725z" fill="#0b0a09"/><path d="M697.068 179.691a29.314 29.314 0 0030.88 39.136l-3.33-29.123z" fill="url(#e)"/><circle cx="724.615" cy="189.704" fill="#fff" r="21.319"/><rect fill="#0b0a09" height="7.621" rx="3.811" stroke="#0b0a09" stroke-width="1.173" width="23.45" x="614.985" y="115.249"/><rect fill="#0b0a09" height="7.621" rx="3.811" stroke="#0b0a09" stroke-width="1.173" width="44.556" x="641.953" y="115.249"/><rect fill="#0b0a09" height="7.621" rx="3.811" stroke="#0b0a09" stroke-width="1.173" width="85.594" x="614.985" y="128.733"/><path d="M651.464 192.682c0-2.814-2.045-3.433-3.978-3.94v-4.54c1.389.207 2.139 1.07 2.139 2.383h1.557c0-2.439-1.876-3.564-3.696-3.771v-1.032h-1.256v1.032c-2.252.244-3.565 1.745-3.565 3.471 0 2.589 1.764 3.208 3.565 3.658v4.99c-1.558-.262-2.496-1.35-2.496-2.682h-1.519c0 2.232 1.726 3.845 4.015 4.108v1.388h1.256v-1.369c2.514-.206 3.978-1.782 3.978-3.696zm-7.279-6.397c0-.957.619-1.876 2.045-2.083v4.203c-1.164-.357-2.045-.863-2.045-2.12zm3.301 8.686v-4.709c1.351.375 2.439.919 2.439 2.514 0 1.219-.994 2.026-2.439 2.195zM720.066 196.153h8.799v-1.351h-6.022v-4.559h3.152v-1.257h-3.152v-2.345c0-1.482.975-2.439 2.382-2.439 1.295 0 2.102.882 2.177 1.708h1.482c-.094-1.37-1.257-3.133-3.677-3.133-2.233 0-3.884 1.557-3.884 3.789v2.42h-1.088v1.257h1.088v4.559h-1.257z" fill="#0b0a09"/><path d="M757.446 105.869v10.552M756.859 116.421h11.139" stroke="#0b0a09" stroke-width="1.173"/><rect fill="#0b0a09" height="8.794" rx="4.397" width="36.934" x="651.922" y="80.073"/><rect fill="#0b0a09" height="8.794" rx="4.397" width="36.934" x="695.891" y="80.073"/><path d="M500.078 236.018h90.87v34.003h-90.87z" stroke="#0b0a09" stroke-width="1.173"/><path d="M500.873 235.811l33.417 33.417M499.701 252.226l17.002 17.002M519.633 235.811l33.417 33.417M544.258 235.811l33.417 33.417M567.121 235.811l23.451 23.45" stroke="#0b0a09" stroke-width=".586"/><path d="M487.182 32.586h256.782v257.368H487.182z" stroke="#0b0a09" stroke-width="1.173"/><path d="M.586 32.586h256.782v257.368H.586z" fill="#fff"/><path d="M12.896 167.719h106.7M12.896 152.476h106.7M12.896 137.234h106.7M12.896 121.991h106.7" stroke="#0b0a09" stroke-width=".586"/><path d="M12.31 105.869h106.7v76.8H12.31z" stroke="#0b0a09" stroke-width="1.173"/><path d="M26.38 157.46h16.416v24.623H26.381z" fill="#bdbdbd"/><path d="M47.486 140.458h16.416v41.624H47.486z" fill="#72e1ce"/><path d="M68.592 148.666h16.415v33.417H68.592z" fill="#e0e0e0"/><path d="M89.697 130.492h16.416v51.59H89.697z" fill="url(#f)"/><path d="M12.31 193.221h106.7v76.8H12.31z" stroke="#0b0a09" stroke-width="1.173"/><path d="M119.142 197.152l-37.438 53.135-29.749-16.462-24.813 24.813-5.613-5.613-12.734 12.734 4.87 4.87 7.864-7.863 5.613 5.614 26.014-26.014 30.623 16.949 41.209-58.493c-1.944-1.223-3.91-2.417-5.846-3.67z" fill="#0b0a09"/><path d="M127.807 190.876l-.823 14.322-12.304-8.541z" fill="#0b0a09"/><path d="M131.322 105.282h150.082v165.325H131.322z" fill="#fff"/><path d="M153.014 220.189h14.07l9.087-9.673" stroke="#0b0a09" stroke-linecap="round" stroke-width="1.173"/><path d="M131.909 105.869h148.91v164.153h-148.91z" stroke="#0b0a09" stroke-width="1.173"/><rect fill="#0b0a09" height="7.621" rx="3.811" stroke="#0b0a09" stroke-width="1.173" width="12.898" x="183.498" y="241.295"/><rect fill="#828282" height="8.794" rx="4.397" width="14.07" x="199.328" y="240.708"/><rect fill="#bdbdbd" height="8.794" rx="4.397" width="14.07" x="215.744" y="240.708"/><path d="M240.4 206.347a38.693 38.693 0 00-63.932-42.967l29.895 24.565z" fill="#0b0a09"/><path d="M176.453 163.399a38.686 38.686 0 00-6.703 37.063 38.698 38.698 0 0027.99 25.203l8.623-37.72z" fill="url(#g)"/><path d="M197.854 225.691a38.698 38.698 0 0024.642-2.576 38.701 38.701 0 0018.027-16.997l-34.16-18.173z" fill="#828282"/><circle cx="206.363" cy="187.945" fill="#fff" r="28.14"/><rect fill="#0b0a09" height="7.621" rx="3.811" stroke="#0b0a09" stroke-width="1.173" width="23.45" x="143.633" y="115.249"/><rect fill="#0b0a09" height="7.621" rx="3.811" stroke="#0b0a09" stroke-width="1.173" width="44.556" x="170.602" y="115.249"/><rect fill="#0b0a09" height="7.621" rx="3.811" stroke="#0b0a09" stroke-width="1.173" width="85.594" x="143.633" y="128.733"/><circle cx="257.954" cy="119.353" fill="#0b0a09" r="4.69"/><circle cx="272.024" cy="119.353" fill="#0b0a09" r="4.69"/><path d="M152.135 168.598h8.794l8.207-9.673h13.191M237.143 179.151h17.001l2.931 6.449H264.404" stroke="#0b0a09" stroke-linecap="round" stroke-width="1.173"/><rect height="7.621" rx="3.811" stroke="#0b0a09" stroke-width="1.173" width="35.762" x="12.311" y="80.659"/><rect height="7.621" rx="3.811" stroke="#0b0a09" stroke-width="1.173" width="35.762" x="165.91" y="80.659"/><rect height="7.621" rx="3.811" stroke="#0b0a09" stroke-width="1.173" width="35.762" x="56.282" y="80.659"/><rect height="7.621" rx="3.811" stroke="#0b0a09" stroke-width="1.173" width="35.762" x="209.881" y="80.659"/><path d="M8.793 262.4h2.931v8.208H8.793z" fill="#fff"/><path d="M.586 32.586h256.782v257.368H.586z" stroke="#0b0a09" stroke-width="1.173"/><path d="M195.31 13.298L163.753.928l.793 29.952-30.292 9.953 39.489 15.202 4.609 25.797 6.742-21.985 19.053 6.156-5.276-16.122 39.573 5.758-31.557-33.956 1.529-17.666z" fill="url(#h)"/><path d="M195.811 41.38h378.137v258.541H195.811z" fill="#fff"/><g stroke="#0b0a09"><path d="M225.709 113.49h311.878v105.825H225.709z" fill="#fff" stroke-width="1.173"/><path clip-rule="evenodd" d="M385.95 123.934c1.02 0 1.977.414 2.584 1.139.482.575.725 1.362.725 2.171v.015l38.651 8.998c.033-.054.068-.106.104-.157.601-.839 1.611-1.355 2.721-1.355 1.019 0 1.977.413 2.584 1.138.481.575.725 1.362.725 2.171 0 .693-.178 1.435-.527 2.011l16.332 21.42 36.981 5.387c.084-.195.187-.379.309-.548.6-.839 1.61-1.355 2.72-1.355 1.019 0 1.977.414 2.584 1.138.482.575.725 1.363.725 2.171 0 .42-.065.858-.194 1.266l31.146 23.964a3.403 3.403 0 012.14-.742c1.02 0 1.977.414 2.584 1.139.482.574.725 1.362.725 2.17 0 .217-.017.438-.051.657l8.655 3.797v1.445l-9.076-3.981a2.613 2.613 0 01-.402.55c-.601.62-1.502.841-2.435.841-.864 0-1.643-.299-2.232-.841a3.38 3.38 0 01-1.077-2.468c0-.544.115-1.074.34-1.535l-30.967-23.826-.03.032c-.601.62-1.502.841-2.435.841-.864 0-1.643-.299-2.232-.841a3.378 3.378 0 01-1.076-2.577l-37.427-5.452-16.574-21.738c-.529.276-1.165.384-1.815.384-.864 0-1.643-.299-2.233-.842a3.377 3.377 0 01-1.076-2.467c0-.183.013-.364.038-.542l-38.418-8.943c-.146.439-.367.84-.661 1.142-.601.621-1.502.842-2.435.842a3.4 3.4 0 01-1.364-.277l-18.544 22.022c.182.436.274.924.274 1.419 0 .895-.297 1.872-.875 2.468-.601.621-1.502.841-2.435.841-.863 0-1.643-.299-2.232-.841a3.38 3.38 0 01-1.077-2.468c0-.225.02-.448.059-.665l-27.797-9.946a2.741 2.741 0 01-.492.725c-.602.62-1.503.841-2.435.841a3.341 3.341 0 01-1.636-.411l-14.9 18.963c.286.511.431 1.122.431 1.745 0 .895-.297 1.872-.874 2.467-.602.621-1.503.842-2.435.842-.864 0-1.643-.3-2.232-.842a2.22 2.22 0 01-.099-.095l-29.88 12.728.001.122c0 .895-.296 1.872-.874 2.468-.601.62-1.502.841-2.435.841-.864 0-1.643-.299-2.232-.841a3.378 3.378 0 01-1.074-2.325l-32.488-12.964c-.108.188-.235.36-.378.508-.602.62-1.503.841-2.435.841-.451 0-.88-.082-1.27-.237l-9.099 12.894v-2.296l8-11.336a3.385 3.385 0 01-.94-2.334c0-.718.2-1.412.588-1.954.601-.839 1.611-1.355 2.721-1.355 1.019 0 1.977.414 2.584 1.138.481.575.725 1.363.725 2.171 0 .233-.02.472-.06.708l32.25 12.87c.096-.271.225-.524.388-.751.6-.839 1.61-1.355 2.72-1.355 1.02 0 1.977.414 2.584 1.138.182.217.329.463.443.73l29.424-12.534a3.364 3.364 0 01-.241-1.247c0-.718.2-1.412.588-1.954.601-.839 1.611-1.356 2.721-1.356.72 0 1.409.207 1.966.583l14.815-18.855a3.39 3.39 0 01-.676-2.024c0-.718.2-1.412.588-1.954.601-.839 1.611-1.355 2.721-1.355 1.019 0 1.977.414 2.584 1.139.481.574.725 1.362.725 2.17 0 .153-.009.309-.026.464l27.931 9.994.04-.058c.6-.838 1.61-1.355 2.72-1.355.841 0 1.64.282 2.235.787l18.268-21.695a3.384 3.384 0 01-.868-2.256c0-.718.201-1.412.589-1.954.6-.839 1.61-1.356 2.72-1.356z" fill="#0b0a09" fill-rule="evenodd" mask="url(#i)" stroke-width="2.345"/><path d="M225.709 246.571h124.873v32.83H225.709zM412.727 246.571H537.6v32.83H412.727zM518.84 81.832h18.76v15.83h-18.76z" stroke-width="1.173"/><path d="M522.946 87.695h10.552" stroke-linecap="round" stroke-linejoin="round" stroke-width="1.173"/><path d="M522.946 91.799h10.552M237.436 255.365h104.94M230.401 262.4h18.174M258.541 262.4h48.66M247.401 269.435h68.006" stroke-linecap="round" stroke-width="1.173"/><rect height="7.621" rx="3.811" stroke-width="1.173" width="17.002" x="431.487" y="258.882"/><rect height="7.621" rx="3.811" stroke-width="1.173" width="35.176" x="454.352" y="258.882"/></g><path d="M521.065 261.6c1.702 0 3.018-1.335 3.018-2.98 0-1.644-1.316-2.979-3.018-2.979-1.703 0-3.018 1.335-3.018 2.979 0 1.645 1.315 2.98 3.018 2.98zm-2.457 7.835h2.941l9.847-13.543h-2.96zm2.457-9.731c-.619-.02-1.045-.465-1.045-1.084s.426-1.064 1.045-1.083c.619.019 1.045.464 1.045 1.083s-.426 1.064-1.045 1.084zm7.874 9.983c1.702 0 3.018-1.335 3.018-2.98 0-1.644-1.316-2.979-3.018-2.979-1.703 0-3.018 1.335-3.018 2.979 0 1.645 1.315 2.98 3.018 2.98zm0-1.896c-.619-.02-1.045-.465-1.045-1.084s.426-1.064 1.045-1.083c.619.019 1.045.464 1.045 1.083s-.426 1.064-1.045 1.084z" fill="#000"/><circle cx="228.641" cy="90.04" fill="url(#j)" r="3.518"/><path d="M235.09 89.453h58.04" stroke="#0b0a09" stroke-linecap="round" stroke-width="1.173"/><g clip-path="url(#k)"><path d="M381.338 54.253c1.475-1.537 3.528-2.49 5.799-2.49 3.018 0 5.652 1.683 7.054 4.182a9.752 9.752 0 013.988-.847c5.444 0 9.858 4.452 9.858 9.944 0 5.493-4.414 9.945-9.858 9.945a9.772 9.772 0 01-1.942-.194 7.205 7.205 0 01-9.443 2.966 8.224 8.224 0 01-7.569 5.01 8.225 8.225 0 01-7.715-5.382 7.545 7.545 0 01-1.569.164c-4.215 0-7.632-3.453-7.632-7.712a7.724 7.724 0 013.816-6.68 8.822 8.822 0 01-.731-3.527c0-4.899 3.977-8.87 8.882-8.87 2.88 0 5.439 1.37 7.062 3.49z" fill="url(#l)"/><g fill="#fff"><path d="M368.932 67.36c-.028.075.011.09.02.103.086.063.173.108.261.158.466.248.907.32 1.367.32.938 0 1.521-.5 1.521-1.302v-.016c0-.743-.658-1.012-1.274-1.207l-.081-.026c-.465-.151-.866-.281-.866-.588v-.016c0-.262.235-.455.598-.455.404 0 .883.135 1.192.305 0 0 .091.059.124-.03l.191-.512c.017-.05-.014-.086-.046-.106a2.66 2.66 0 00-1.344-.36h-.093c-.859 0-1.458.518-1.458 1.262v.015c0 .784.661 1.038 1.28 1.215l.1.03c.451.14.84.259.84.577v.015c0 .29-.252.507-.66.507-.158 0-.663-.003-1.209-.348-.065-.038-.104-.066-.155-.097-.026-.017-.093-.046-.123.042zm13.732 0c-.028.075.011.09.02.103.086.063.173.108.261.158.466.248.907.32 1.367.32.938 0 1.521-.5 1.521-1.302v-.016c0-.743-.658-1.012-1.274-1.207l-.081-.026c-.465-.151-.866-.281-.866-.588v-.016c0-.262.235-.455.598-.455.404 0 .883.135 1.192.305 0 0 .091.059.124-.03l.191-.512c.017-.05-.014-.086-.046-.106a2.66 2.66 0 00-1.344-.36h-.094c-.858 0-1.457.518-1.457 1.262v.015c0 .784.661 1.038 1.28 1.215l.1.03c.451.14.841.259.841.577v.015c0 .29-.253.507-.661.507-.158 0-.663-.003-1.208-.348-.066-.038-.105-.065-.155-.097-.017-.011-.096-.042-.124.042zm9.375-1.573c0 .453-.085.811-.252 1.064-.164.25-.414.372-.762.372s-.596-.121-.759-.372c-.164-.252-.247-.61-.247-1.064 0-.454.083-.81.247-1.061.163-.247.411-.368.759-.368s.598.12.763.368c.166.25.251.607.251 1.06zm.783-.842a1.895 1.895 0 00-.356-.68 1.727 1.727 0 00-.602-.457c-.239-.112-.521-.168-.839-.168s-.6.056-.839.168c-.24.112-.442.265-.602.457-.159.191-.279.42-.357.68-.076.259-.114.541-.114.842s.038.583.114.841c.078.26.197.489.357.68s.363.345.602.453.521.165.839.165.6-.056.839-.165.442-.261.602-.453c.159-.19.279-.42.356-.68.077-.258.115-.542.115-.841s-.038-.584-.115-.842zm6.43 2.157c-.026-.077-.1-.048-.1-.048a1.793 1.793 0 01-.364.104c-.131.02-.275.03-.429.03-.38 0-.68-.112-.896-.335s-.338-.583-.336-1.07c.001-.443.108-.777.3-1.031.191-.253.481-.382.869-.382a2.6 2.6 0 01.827.118s.062.027.091-.054c.069-.19.12-.326.193-.535.02-.06-.03-.085-.049-.092a3.032 3.032 0 00-.522-.132 3.922 3.922 0 00-.588-.04c-.329 0-.622.057-.872.169a1.799 1.799 0 00-1.012 1.136 2.699 2.699 0 00-.128.843c0 .65.176 1.175.521 1.559.347.386.867.582 1.546.582.401 0 .813-.082 1.109-.198 0 0 .057-.028.032-.093zm1.37-1.75a1.53 1.53 0 01.214-.626c.162-.248.41-.384.758-.384.347 0 .577.137.742.384.11.164.157.383.176.626zm2.636-.555a1.643 1.643 0 00-.34-.62 1.552 1.552 0 00-.502-.384 1.942 1.942 0 00-.76-.153c-.331 0-.631.055-.875.17a1.743 1.743 0 00-.61.465 1.91 1.91 0 00-.359.688 2.958 2.958 0 00-.117.846c0 .306.041.59.121.847.081.258.21.485.384.673.174.19.398.338.667.442.266.103.59.156.962.155.765-.002 1.168-.173 1.334-.265.03-.016.058-.045.022-.127l-.173-.485c-.026-.072-.099-.046-.099-.046-.19.07-.46.197-1.088.196-.411 0-.716-.122-.907-.311-.196-.195-.292-.48-.309-.882l2.651.002s.069-.001.077-.069c.002-.028.091-.544-.079-1.142zm-23.863.555a1.53 1.53 0 01.214-.626c.162-.248.41-.384.757-.384.348 0 .578.137.744.384.108.164.156.383.175.626zm2.635-.555a1.629 1.629 0 00-.339-.62 1.552 1.552 0 00-.502-.384 1.942 1.942 0 00-.76-.153c-.33 0-.631.055-.875.17a1.743 1.743 0 00-.61.465 1.91 1.91 0 00-.359.688 2.993 2.993 0 00-.117.846c0 .306.041.59.121.847.081.258.21.485.384.673.174.19.398.338.667.442.266.103.59.156.962.155.765-.002 1.168-.173 1.334-.265.03-.016.058-.045.023-.127l-.173-.485c-.027-.072-.1-.046-.1-.046-.19.07-.459.197-1.089.196-.41 0-.715-.122-.906-.311-.196-.195-.292-.48-.309-.882l2.651.002s.069-.001.077-.069c.002-.028.091-.544-.08-1.142zm-8.365 2.29c-.103-.083-.117-.103-.153-.157a.643.643 0 01-.078-.344c0-.234.076-.401.236-.514-.002 0 .228-.198.769-.191.379.005.719.06.719.06v1.206s-.336.072-.715.095c-.54.033-.78-.156-.778-.155zm1.055-1.862a5.893 5.893 0 00-.414-.013c-.227 0-.446.029-.652.084a1.704 1.704 0 00-.554.257c-.16.114-.292.264-.384.437-.094.175-.142.38-.142.611 0 .235.041.439.122.605.08.168.197.307.345.415.148.107.329.186.54.233.208.048.444.072.702.072.272 0 .543-.022.805-.067.26-.044.579-.109.668-.129.062-.015.124-.03.185-.048.066-.016.061-.086.061-.086l-.001-2.424c0-.532-.142-.926-.422-1.17-.278-.244-.688-.367-1.217-.367-.199 0-.519.028-.71.066 0 0-.579.112-.818.298 0 0-.052.033-.023.106l.187.504c.024.065.087.043.087.043s.02-.008.044-.021c.51-.278 1.155-.27 1.155-.27.286 0 .506.058.655.172.145.11.218.278.218.631v.112c-.228-.032-.437-.051-.437-.051zm21.378-1.366c.02-.06-.022-.089-.04-.095a2.289 2.289 0 00-.444-.076c-.333-.02-.518.036-.683.11a1.202 1.202 0 00-.449.33v-.322c0-.045-.032-.081-.076-.081h-.679c-.045 0-.076.036-.076.08v3.954c0 .044.036.08.08.08h.697a.082.082 0 00.08-.08v-1.975c0-.265.029-.53.088-.696a.99.99 0 01.232-.39.814.814 0 01.327-.197 1.276 1.276 0 01.647-.014c.051.006.08-.025.096-.072.046-.12.175-.484.2-.556"/><path d="M389.563 62.027a2.073 2.073 0 00-.622-.09c-.48 0-.858.135-1.123.402-.264.266-.443.67-.533 1.203l-.032.18h-.602s-.073-.004-.089.076l-.098.552c-.007.052.016.085.086.085h.586l-.595 3.317a4 4 0 01-.159.653 1.317 1.317 0 01-.185.377.488.488 0 01-.242.187.987.987 0 01-.312.045c-.064 0-.149-.01-.212-.023a.635.635 0 01-.144-.046s-.068-.026-.095.042a70.9 70.9 0 00-.197.539c-.018.052.008.094.041.106.078.027.136.045.242.07.148.035.272.037.389.037.243 0 .466-.034.65-.1.185-.068.347-.184.49-.342.155-.17.252-.35.344-.593a4.98 4.98 0 00.233-.89l.598-3.379h.872s.074.003.089-.077l.099-.552c.007-.052-.016-.085-.087-.085h-.847c.005-.019.043-.317.14-.598a.785.785 0 01.186-.283.557.557 0 01.222-.138.922.922 0 01.285-.04c.079 0 .158.01.217.021.082.018.114.027.136.034.086.026.098 0 .115-.041l.202-.557c.021-.06-.03-.085-.048-.092zm-11.841 5.732c0 .044-.032.08-.076.08h-.703c-.045 0-.076-.036-.076-.08v-5.657c0-.044.031-.08.076-.08h.703c.044 0 .076.036.076.08z"/></g></g><path d="M195.811 41.38v-1.172h-1.173v1.172zm378.137 0h1.172v-1.172h-1.172zm0 258.541v1.172h1.172v-1.172zm-378.137 0h-1.173v1.172h1.173zm0-257.368h378.137v-2.345H195.811zm376.964-1.173v258.541h2.345V41.381zm1.173 257.368H195.811v2.345h378.137zm-376.965 1.173V41.381h-2.345v258.54z" fill="#0b0a09"/><path d="M588.02 79.032l-1.628 6.076M378.38 119.353l2.688 2.688M602.09 96.145l-4.447 4.447M390.064 117.347l-2.315 4.011M439.109 129.562l-3.274 3.275" stroke="#0b0a09" stroke-linecap="round" stroke-width="1.173"/></svg>