<svg fill="none" height="24" viewBox="0 0 24 24" width="24" xmlns="http://www.w3.org/2000/svg"><g clip-rule="evenodd" fill-rule="evenodd"><path d="m7.69592 13.3909c-.64477 0-1.16858-.5238-1.16858-1.1686 0-.6429.52381-1.1667 1.16858-1.1667.64476 0 1.16857.5238 1.16857 1.1667 0 .6448-.52381 1.1686-1.16857 1.1686zm4.54288 0c-.6448 0-1.1686-.5238-1.1686-1.1686 0-.6429.5238-1.1667 1.1686-1.1667.6447 0 1.1685.5238 1.1685 1.1667 0 .6448-.5238 1.1686-1.1685 1.1686zm3.3744-1.1686c0 .6448.5238 1.1686 1.1685 1.1686.6448 0 1.1686-.5238 1.1686-1.1686 0-.6429-.5238-1.1667-1.1686-1.1667-.6447 0-1.1685.5238-1.1685 1.1667z" fill="#0b0a09"/><path d="m12.02 2c-5.81 0-10.02 4.74612-10.02 10.015 0 1.6825.49 3.4141 1.35 4.9965.16.2614.18.5909.07.9024l-.67 2.2433c-.15.5408.31.9404.82.7802l2.02-.5999c.55-.1803.98.0491 1.49.3605 1.46.8603 3.28 1.302 4.92 1.302 4.96 0 10-3.8358 10-10.015 0-5.32902-4.3-9.985-9.98-9.985z" stroke="#0b0a09" stroke-linecap="round" stroke-linejoin="round" stroke-width="1.5"/></g></svg>