<svg fill="none" height="24" viewBox="0 0 24 24" width="24" xmlns="http://www.w3.org/2000/svg"><g stroke="#0b0a09" stroke-linecap="round" stroke-linejoin="round" stroke-width="1.5"><path d="m2.80469 15.477s.142 1.738.175 2.286c.044.735.328 1.556.802 2.126.669.808 1.457 1.093 2.509 1.095 1.237.002 10.23201.002 11.46901 0 1.052-.002 1.84-.287 2.509-1.095.474-.57.758-1.391.803-2.126.032-.548.174-2.286.174-2.286"/><path d="m8.49609 5.32949v-.371c0-1.22.988-2.208 2.20801-2.208h2.582c1.219 0 2.208.988 2.208 2.208l.001.371"/><path d="m11.9961 16.6782v-1.294"/><path clip-rule="evenodd" d="m2.75 8.38909v3.46701c1.918 1.265 4.216 2.151 6.738 2.502.302-1.101 1.295-1.908 2.502-1.908 1.188 0 2.201.807 2.483 1.918 2.532-.351 4.839-1.237 6.767-2.512v-3.46701c0-1.694-1.363-3.058-3.057-3.058h-12.366c-1.694 0-3.067 1.364-3.067 3.058z" fill-rule="evenodd"/></g></svg>